<svg xmlns="http://www.w3.org/2000/svg" width="256" height="256" viewBox="0 0 100 100"><rect width="100" height="100" rx="20" fill="#0b0727"></rect><path d="M23.51 30.12Q29.73 30.12 34.38 32.58Q39.02 35.05 41.57 39.50Q44.12 43.95 44.12 49.78L44.12 49.78Q44.12 55.54 41.57 60.02Q39.02 64.50 34.35 66.97Q29.67 69.43 23.51 69.43L23.51 69.43L8.78 69.43L8.78 30.12L23.51 30.12ZM22.90 61.14Q28.33 61.14 31.35 58.18Q34.38 55.21 34.38 49.78L34.38 49.78Q34.38 44.34 31.35 41.32Q28.33 38.30 22.90 38.30L22.90 38.30L18.36 38.30L18.36 61.14L22.90 61.14ZM53.98 69.88Q51.46 69.88 49.86 68.40Q48.26 66.91 48.26 64.73L48.26 64.73Q48.26 62.49 49.86 60.98Q51.46 59.46 53.98 59.46L53.98 59.46Q56.44 59.46 58.04 60.98Q59.63 62.49 59.63 64.73L59.63 64.73Q59.63 66.91 58.04 68.40Q56.44 69.88 53.98 69.88L53.98 69.88ZM69.77 69.88Q67.25 69.88 65.65 68.40Q64.06 66.91 64.06 64.73L64.06 64.73Q64.06 62.49 65.65 60.98Q67.25 59.46 69.77 59.46L69.77 59.46Q72.23 59.46 73.83 60.98Q75.42 62.49 75.42 64.73L75.42 64.73Q75.42 66.91 73.83 68.40Q72.23 69.88 69.77 69.88L69.77 69.88ZM85.56 69.88Q83.04 69.88 81.44 68.40Q79.85 66.91 79.85 64.73L79.85 64.73Q79.85 62.49 81.44 60.98Q83.04 59.46 85.56 59.46L85.56 59.46Q88.02 59.46 89.62 60.98Q91.22 62.49 91.22 64.73L91.22 64.73Q91.22 66.91 89.62 68.40Q88.02 69.88 85.56 69.88L85.56 69.88Z" fill="#fff"></path></svg>